<mxfile host="app.diagrams.net" modified="2024-05-12T15:15:20.658Z" agent="Mozilla/5.0 (Windows NT 10.0; Win64; x64) AppleWebKit/537.36 (KHTML, like Gecko) Chrome/124.0.0.0 Safari/537.36" etag="V7xZhlpe-3HZFZOznc9x" version="24.4.0" type="device">
  <diagram name="Page-1" id="N4Be0RvZO1XSEU-rdTDL">
    <mxGraphModel dx="819" dy="441" grid="1" gridSize="10" guides="1" tooltips="1" connect="1" arrows="1" fold="1" page="1" pageScale="1" pageWidth="827" pageHeight="1169" math="0" shadow="0">
      <root>
        <mxCell id="0" />
        <mxCell id="1" parent="0" />
        <mxCell id="XamU2vE_pedXC1t-x_eG-1" value="User" style="shape=umlActor;verticalLabelPosition=bottom;verticalAlign=top;html=1;" parent="1" vertex="1">
          <mxGeometry x="10" y="50" width="30" height="60" as="geometry" />
        </mxCell>
        <mxCell id="XamU2vE_pedXC1t-x_eG-12" value="Rugby System" style="rounded=1;whiteSpace=wrap;html=1;fillColor=#f5f5f5;fontColor=#333333;strokeColor=#666666;" parent="1" vertex="1">
          <mxGeometry x="80" y="1040" width="96" height="30" as="geometry" />
        </mxCell>
        <mxCell id="XamU2vE_pedXC1t-x_eG-13" value="Method" style="rounded=1;whiteSpace=wrap;html=1;fillColor=#f5f5f5;fontColor=#333333;strokeColor=#666666;" parent="1" vertex="1">
          <mxGeometry x="280" y="1040" width="60" height="30" as="geometry" />
        </mxCell>
        <mxCell id="XamU2vE_pedXC1t-x_eG-14" value="Menu_Imp" style="rounded=1;whiteSpace=wrap;html=1;fillColor=#f5f5f5;fontColor=#333333;strokeColor=#666666;" parent="1" vertex="1">
          <mxGeometry x="430" y="1040" width="70" height="30" as="geometry" />
        </mxCell>
        <mxCell id="XamU2vE_pedXC1t-x_eG-15" value="Scanner" style="rounded=1;whiteSpace=wrap;html=1;fillColor=#f5f5f5;fontColor=#333333;strokeColor=#666666;" parent="1" vertex="1">
          <mxGeometry x="660" y="1040" width="60" height="30" as="geometry" />
        </mxCell>
        <mxCell id="XamU2vE_pedXC1t-x_eG-16" value="FileReader" style="rounded=1;whiteSpace=wrap;html=1;fillColor=#f5f5f5;fontColor=#333333;strokeColor=#666666;" parent="1" vertex="1">
          <mxGeometry x="730" y="1040" width="70" height="30" as="geometry" />
        </mxCell>
        <mxCell id="XamU2vE_pedXC1t-x_eG-17" value="Scanner" style="rounded=1;whiteSpace=wrap;html=1;fillColor=#f5f5f5;fontColor=#333333;strokeColor=#666666;" parent="1" vertex="1">
          <mxGeometry x="510" y="1040" width="60" height="30" as="geometry" />
        </mxCell>
        <mxCell id="XamU2vE_pedXC1t-x_eG-18" value="FileReader" style="rounded=1;whiteSpace=wrap;html=1;fillColor=#f5f5f5;fontColor=#333333;strokeColor=#666666;" parent="1" vertex="1">
          <mxGeometry x="580" y="1040" width="70" height="30" as="geometry" />
        </mxCell>
        <mxCell id="XamU2vE_pedXC1t-x_eG-19" value="Menu_Imp" style="shape=umlLifeline;perimeter=lifelinePerimeter;whiteSpace=wrap;html=1;container=1;dropTarget=0;collapsible=0;recursiveResize=0;outlineConnect=0;portConstraint=eastwest;newEdgeStyle={&quot;edgeStyle&quot;:&quot;elbowEdgeStyle&quot;,&quot;elbow&quot;:&quot;vertical&quot;,&quot;curved&quot;:0,&quot;rounded&quot;:0};rounded=1;size=30;fillColor=#f5f5f5;fontColor=#333333;strokeColor=#666666;" parent="1" vertex="1">
          <mxGeometry x="430" y="80" width="70" height="960" as="geometry" />
        </mxCell>
        <mxCell id="XamU2vE_pedXC1t-x_eG-20" value="" style="html=1;points=[[0,0,0,0,5],[0,1,0,0,-5],[1,0,0,0,5],[1,1,0,0,-5]];perimeter=orthogonalPerimeter;outlineConnect=0;targetShapes=umlLifeline;portConstraint=eastwest;newEdgeStyle={&quot;curved&quot;:0,&quot;rounded&quot;:0};fillColor=#FFFFFF;" parent="XamU2vE_pedXC1t-x_eG-19" vertex="1">
          <mxGeometry x="30" y="500" width="10" height="440" as="geometry" />
        </mxCell>
        <mxCell id="XamU2vE_pedXC1t-x_eG-40" value="" style="html=1;points=[[0,0,0,0,5],[0,1,0,0,-5],[1,0,0,0,5],[1,1,0,0,-5]];perimeter=orthogonalPerimeter;outlineConnect=0;targetShapes=umlLifeline;portConstraint=eastwest;newEdgeStyle={&quot;curved&quot;:0,&quot;rounded&quot;:0};fillColor=#FFFFFF;" parent="XamU2vE_pedXC1t-x_eG-19" vertex="1">
          <mxGeometry x="30" y="440" width="10" height="30" as="geometry" />
        </mxCell>
        <mxCell id="XamU2vE_pedXC1t-x_eG-21" value="Method" style="shape=umlLifeline;perimeter=lifelinePerimeter;whiteSpace=wrap;html=1;container=1;dropTarget=0;collapsible=0;recursiveResize=0;outlineConnect=0;portConstraint=eastwest;newEdgeStyle={&quot;edgeStyle&quot;:&quot;elbowEdgeStyle&quot;,&quot;elbow&quot;:&quot;vertical&quot;,&quot;curved&quot;:0,&quot;rounded&quot;:0};rounded=1;size=30;fillColor=#f5f5f5;fontColor=#333333;strokeColor=#666666;" parent="1" vertex="1">
          <mxGeometry x="280" y="80" width="60" height="960" as="geometry" />
        </mxCell>
        <mxCell id="XamU2vE_pedXC1t-x_eG-22" value="" style="html=1;points=[[0,0,0,0,5],[0,1,0,0,-5],[1,0,0,0,5],[1,1,0,0,-5]];perimeter=orthogonalPerimeter;outlineConnect=0;targetShapes=umlLifeline;portConstraint=eastwest;newEdgeStyle={&quot;curved&quot;:0,&quot;rounded&quot;:0};" parent="XamU2vE_pedXC1t-x_eG-21" vertex="1">
          <mxGeometry x="25" y="80" width="10" height="870" as="geometry" />
        </mxCell>
        <mxCell id="XamU2vE_pedXC1t-x_eG-23" value="Scanner" style="shape=umlLifeline;perimeter=lifelinePerimeter;whiteSpace=wrap;html=1;container=1;dropTarget=0;collapsible=0;recursiveResize=0;outlineConnect=0;portConstraint=eastwest;newEdgeStyle={&quot;edgeStyle&quot;:&quot;elbowEdgeStyle&quot;,&quot;elbow&quot;:&quot;vertical&quot;,&quot;curved&quot;:0,&quot;rounded&quot;:0};rounded=1;size=30;fillColor=#f5f5f5;fontColor=#333333;strokeColor=#666666;" parent="1" vertex="1">
          <mxGeometry x="510" y="80" width="60" height="960" as="geometry" />
        </mxCell>
        <mxCell id="XamU2vE_pedXC1t-x_eG-24" value="" style="html=1;points=[[0,0,0,0,5],[0,1,0,0,-5],[1,0,0,0,5],[1,1,0,0,-5]];perimeter=orthogonalPerimeter;outlineConnect=0;targetShapes=umlLifeline;portConstraint=eastwest;newEdgeStyle={&quot;curved&quot;:0,&quot;rounded&quot;:0};fillColor=#FFFFFF;" parent="XamU2vE_pedXC1t-x_eG-23" vertex="1">
          <mxGeometry x="25" y="120" width="10" height="30" as="geometry" />
        </mxCell>
        <mxCell id="XamU2vE_pedXC1t-x_eG-41" value="" style="html=1;points=[[0,0,0,0,5],[0,1,0,0,-5],[1,0,0,0,5],[1,1,0,0,-5]];perimeter=orthogonalPerimeter;outlineConnect=0;targetShapes=umlLifeline;portConstraint=eastwest;newEdgeStyle={&quot;curved&quot;:0,&quot;rounded&quot;:0};fillColor=#FFFFFF;" parent="XamU2vE_pedXC1t-x_eG-23" vertex="1">
          <mxGeometry x="25" y="180" width="10" height="30" as="geometry" />
        </mxCell>
        <mxCell id="XamU2vE_pedXC1t-x_eG-25" value="Rugby System" style="shape=umlLifeline;perimeter=lifelinePerimeter;whiteSpace=wrap;html=1;container=1;dropTarget=0;collapsible=0;recursiveResize=0;outlineConnect=0;portConstraint=eastwest;newEdgeStyle={&quot;edgeStyle&quot;:&quot;elbowEdgeStyle&quot;,&quot;elbow&quot;:&quot;vertical&quot;,&quot;curved&quot;:0,&quot;rounded&quot;:0};rounded=1;size=30;fillColor=#f5f5f5;fontColor=#333333;strokeColor=#666666;" parent="1" vertex="1">
          <mxGeometry x="80" y="80" width="90" height="960" as="geometry" />
        </mxCell>
        <mxCell id="XamU2vE_pedXC1t-x_eG-26" value="" style="html=1;points=[[0,0,0,0,5],[0,1,0,0,-5],[1,0,0,0,5],[1,1,0,0,-5]];perimeter=orthogonalPerimeter;outlineConnect=0;targetShapes=umlLifeline;portConstraint=eastwest;newEdgeStyle={&quot;curved&quot;:0,&quot;rounded&quot;:0};fillColor=#FFFFFF;" parent="XamU2vE_pedXC1t-x_eG-25" vertex="1">
          <mxGeometry x="40" y="60" width="10" height="880" as="geometry" />
        </mxCell>
        <mxCell id="XamU2vE_pedXC1t-x_eG-35" value="" style="html=1;points=[[0,0,0,0,5],[0,1,0,0,-5],[1,0,0,0,5],[1,1,0,0,-5]];perimeter=orthogonalPerimeter;outlineConnect=0;targetShapes=umlLifeline;portConstraint=eastwest;newEdgeStyle={&quot;curved&quot;:0,&quot;rounded&quot;:0};fillColor=#FFFFFF;" parent="XamU2vE_pedXC1t-x_eG-25" vertex="1">
          <mxGeometry x="45" y="590" width="10" height="320" as="geometry" />
        </mxCell>
        <mxCell id="XamU2vE_pedXC1t-x_eG-27" value="FileReader" style="shape=umlLifeline;perimeter=lifelinePerimeter;whiteSpace=wrap;html=1;container=1;dropTarget=0;collapsible=0;recursiveResize=0;outlineConnect=0;portConstraint=eastwest;newEdgeStyle={&quot;edgeStyle&quot;:&quot;elbowEdgeStyle&quot;,&quot;elbow&quot;:&quot;vertical&quot;,&quot;curved&quot;:0,&quot;rounded&quot;:0};rounded=1;size=30;fillColor=#f5f5f5;fontColor=#333333;strokeColor=#666666;" parent="1" vertex="1">
          <mxGeometry x="580" y="80" width="70" height="960" as="geometry" />
        </mxCell>
        <mxCell id="XamU2vE_pedXC1t-x_eG-28" value="" style="html=1;points=[[0,0,0,0,5],[0,1,0,0,-5],[1,0,0,0,5],[1,1,0,0,-5]];perimeter=orthogonalPerimeter;outlineConnect=0;targetShapes=umlLifeline;portConstraint=eastwest;newEdgeStyle={&quot;curved&quot;:0,&quot;rounded&quot;:0};fillColor=#FFFFFF;" parent="XamU2vE_pedXC1t-x_eG-27" vertex="1">
          <mxGeometry x="30" y="240" width="10" height="30" as="geometry" />
        </mxCell>
        <mxCell id="XamU2vE_pedXC1t-x_eG-42" value="" style="html=1;points=[[0,0,0,0,5],[0,1,0,0,-5],[1,0,0,0,5],[1,1,0,0,-5]];perimeter=orthogonalPerimeter;outlineConnect=0;targetShapes=umlLifeline;portConstraint=eastwest;newEdgeStyle={&quot;curved&quot;:0,&quot;rounded&quot;:0};fillColor=#FFFFFF;" parent="XamU2vE_pedXC1t-x_eG-27" vertex="1">
          <mxGeometry x="30" y="360" width="10" height="50" as="geometry" />
        </mxCell>
        <mxCell id="XamU2vE_pedXC1t-x_eG-31" value="Scanner" style="shape=umlLifeline;perimeter=lifelinePerimeter;whiteSpace=wrap;html=1;container=1;dropTarget=0;collapsible=0;recursiveResize=0;outlineConnect=0;portConstraint=eastwest;newEdgeStyle={&quot;edgeStyle&quot;:&quot;elbowEdgeStyle&quot;,&quot;elbow&quot;:&quot;vertical&quot;,&quot;curved&quot;:0,&quot;rounded&quot;:0};rounded=1;size=30;fillColor=#f5f5f5;fontColor=#333333;strokeColor=#666666;" parent="1" vertex="1">
          <mxGeometry x="660" y="80" width="60" height="960" as="geometry" />
        </mxCell>
        <mxCell id="XamU2vE_pedXC1t-x_eG-32" value="" style="html=1;points=[[0,0,0,0,5],[0,1,0,0,-5],[1,0,0,0,5],[1,1,0,0,-5]];perimeter=orthogonalPerimeter;outlineConnect=0;targetShapes=umlLifeline;portConstraint=eastwest;newEdgeStyle={&quot;curved&quot;:0,&quot;rounded&quot;:0};fillColor=#FFFFFF;" parent="XamU2vE_pedXC1t-x_eG-31" vertex="1">
          <mxGeometry x="25" y="300" width="10" height="30" as="geometry" />
        </mxCell>
        <mxCell id="XamU2vE_pedXC1t-x_eG-33" value="FileReader" style="shape=umlLifeline;perimeter=lifelinePerimeter;whiteSpace=wrap;html=1;container=1;dropTarget=0;collapsible=0;recursiveResize=0;outlineConnect=0;portConstraint=eastwest;newEdgeStyle={&quot;edgeStyle&quot;:&quot;elbowEdgeStyle&quot;,&quot;elbow&quot;:&quot;vertical&quot;,&quot;curved&quot;:0,&quot;rounded&quot;:0};rounded=1;size=30;fillColor=#f5f5f5;fontColor=#333333;strokeColor=#666666;" parent="1" vertex="1">
          <mxGeometry x="730" y="80" width="70" height="960" as="geometry" />
        </mxCell>
        <mxCell id="XamU2vE_pedXC1t-x_eG-34" value="" style="html=1;points=[[0,0,0,0,5],[0,1,0,0,-5],[1,0,0,0,5],[1,1,0,0,-5]];perimeter=orthogonalPerimeter;outlineConnect=0;targetShapes=umlLifeline;portConstraint=eastwest;newEdgeStyle={&quot;curved&quot;:0,&quot;rounded&quot;:0};fillColor=#FFFFFF;" parent="XamU2vE_pedXC1t-x_eG-33" vertex="1">
          <mxGeometry x="30" y="380" width="10" height="30" as="geometry" />
        </mxCell>
        <mxCell id="XamU2vE_pedXC1t-x_eG-39" value="" style="html=1;points=[[0,0,0,0,5],[0,1,0,0,-5],[1,0,0,0,5],[1,1,0,0,-5]];perimeter=orthogonalPerimeter;outlineConnect=0;targetShapes=umlLifeline;portConstraint=eastwest;newEdgeStyle={&quot;curved&quot;:0,&quot;rounded&quot;:0};fillColor=#FFFFFF;" parent="1" vertex="1">
          <mxGeometry x="465" y="680" width="10" height="330" as="geometry" />
        </mxCell>
        <mxCell id="XamU2vE_pedXC1t-x_eG-45" value="Run program" style="html=1;verticalAlign=bottom;endArrow=block;curved=0;rounded=0;" parent="1" edge="1" target="XamU2vE_pedXC1t-x_eG-26">
          <mxGeometry width="80" relative="1" as="geometry">
            <mxPoint x="27" y="140" as="sourcePoint" />
            <mxPoint x="117" y="140" as="targetPoint" />
          </mxGeometry>
        </mxCell>
        <mxCell id="XamU2vE_pedXC1t-x_eG-48" value="" style="endArrow=none;dashed=1;html=1;rounded=0;entryX=0.5;entryY=0;entryDx=0;entryDy=0;entryPerimeter=0;" parent="1" target="XamU2vE_pedXC1t-x_eG-49" edge="1">
          <mxGeometry width="50" height="50" relative="1" as="geometry">
            <mxPoint x="26" y="133" as="sourcePoint" />
            <mxPoint x="26" y="990" as="targetPoint" />
          </mxGeometry>
        </mxCell>
        <mxCell id="XamU2vE_pedXC1t-x_eG-49" value="User" style="shape=umlActor;verticalLabelPosition=bottom;verticalAlign=top;html=1;" parent="1" vertex="1">
          <mxGeometry x="10" y="1024" width="30" height="60" as="geometry" />
        </mxCell>
        <mxCell id="XamU2vE_pedXC1t-x_eG-51" value="Call readFile()" style="html=1;verticalAlign=bottom;endArrow=block;curved=0;rounded=0;" parent="1" target="XamU2vE_pedXC1t-x_eG-22" edge="1">
          <mxGeometry width="80" relative="1" as="geometry">
            <mxPoint x="130" y="160" as="sourcePoint" />
            <mxPoint x="300" y="160" as="targetPoint" />
          </mxGeometry>
        </mxCell>
        <mxCell id="XamU2vE_pedXC1t-x_eG-52" value="Call readFile()" style="html=1;verticalAlign=bottom;endArrow=block;curved=0;rounded=0;" parent="1" source="XamU2vE_pedXC1t-x_eG-22" edge="1">
          <mxGeometry x="-0.51" width="80" relative="1" as="geometry">
            <mxPoint x="326" y="200" as="sourcePoint" />
            <mxPoint x="535.5" y="200" as="targetPoint" />
            <mxPoint as="offset" />
          </mxGeometry>
        </mxCell>
        <mxCell id="XamU2vE_pedXC1t-x_eG-53" value="" style="html=1;verticalAlign=bottom;labelBackgroundColor=none;endArrow=block;endFill=1;dashed=1;rounded=0;movable=1;resizable=1;rotatable=1;deletable=1;editable=1;locked=0;connectable=1;" parent="1" edge="1">
          <mxGeometry width="160" relative="1" as="geometry">
            <mxPoint x="539" y="230" as="sourcePoint" />
            <mxPoint x="314.5" y="230" as="targetPoint" />
          </mxGeometry>
        </mxCell>
        <mxCell id="XamU2vE_pedXC1t-x_eG-67" value="Scanner object" style="text;html=1;align=center;verticalAlign=middle;resizable=1;points=[];autosize=1;strokeColor=none;fillColor=none;fontSize=11;movable=1;rotatable=1;deletable=1;editable=1;locked=0;connectable=1;" parent="1" vertex="1">
          <mxGeometry x="323" y="207" width="100" height="30" as="geometry" />
        </mxCell>
        <mxCell id="XamU2vE_pedXC1t-x_eG-68" value="Read filename from user" style="html=1;verticalAlign=bottom;endArrow=block;curved=0;rounded=0;align=center;" parent="1" source="XamU2vE_pedXC1t-x_eG-22" edge="1">
          <mxGeometry x="-0.3166" width="80" relative="1" as="geometry">
            <mxPoint x="320" y="260" as="sourcePoint" />
            <mxPoint x="534.5" y="260" as="targetPoint" />
            <mxPoint as="offset" />
          </mxGeometry>
        </mxCell>
        <mxCell id="XamU2vE_pedXC1t-x_eG-69" value="Input filename" style="html=1;verticalAlign=bottom;endArrow=block;curved=0;rounded=0;align=center;" parent="1" source="XamU2vE_pedXC1t-x_eG-41" edge="1">
          <mxGeometry x="0.7878" width="80" relative="1" as="geometry">
            <mxPoint x="529" y="290" as="sourcePoint" />
            <mxPoint x="26" y="290" as="targetPoint" />
            <mxPoint as="offset" />
          </mxGeometry>
        </mxCell>
        <mxCell id="XamU2vE_pedXC1t-x_eG-70" value="Prompt to enter&amp;nbsp;&lt;div&gt;filename&lt;/div&gt;" style="html=1;verticalAlign=bottom;endArrow=block;curved=0;rounded=0;align=center;" parent="1" edge="1">
          <mxGeometry x="0.6846" width="80" relative="1" as="geometry">
            <mxPoint x="305" y="249.9999999999999" as="sourcePoint" />
            <mxPoint x="26" y="250" as="targetPoint" />
            <mxPoint as="offset" />
          </mxGeometry>
        </mxCell>
        <mxCell id="XamU2vE_pedXC1t-x_eG-71" value="Create FileReader" style="html=1;verticalAlign=bottom;endArrow=block;curved=0;rounded=0;" parent="1" source="XamU2vE_pedXC1t-x_eG-22" edge="1">
          <mxGeometry x="-0.51" width="80" relative="1" as="geometry">
            <mxPoint x="390" y="320" as="sourcePoint" />
            <mxPoint x="610.5" y="320" as="targetPoint" />
            <mxPoint as="offset" />
          </mxGeometry>
        </mxCell>
        <mxCell id="XamU2vE_pedXC1t-x_eG-72" value="FileReader object" style="text;html=1;align=center;verticalAlign=middle;resizable=1;points=[];autosize=1;strokeColor=none;fillColor=none;fontSize=11;movable=1;rotatable=1;deletable=1;editable=1;locked=0;connectable=1;" parent="1" vertex="1">
          <mxGeometry x="330" y="327" width="110" height="30" as="geometry" />
        </mxCell>
        <mxCell id="XamU2vE_pedXC1t-x_eG-73" value="" style="html=1;verticalAlign=bottom;labelBackgroundColor=none;endArrow=block;endFill=1;dashed=1;rounded=0;movable=1;resizable=1;rotatable=1;deletable=1;editable=1;locked=0;connectable=1;" parent="1" source="XamU2vE_pedXC1t-x_eG-28" edge="1">
          <mxGeometry width="160" relative="1" as="geometry">
            <mxPoint x="540.5" y="350" as="sourcePoint" />
            <mxPoint x="316" y="350" as="targetPoint" />
          </mxGeometry>
        </mxCell>
        <mxCell id="XamU2vE_pedXC1t-x_eG-74" value="Create Scanner" style="html=1;verticalAlign=bottom;endArrow=block;curved=0;rounded=0;" parent="1" source="XamU2vE_pedXC1t-x_eG-22" edge="1">
          <mxGeometry x="-0.6266" width="80" relative="1" as="geometry">
            <mxPoint x="320" y="380" as="sourcePoint" />
            <mxPoint x="685.75" y="380" as="targetPoint" />
            <mxPoint as="offset" />
          </mxGeometry>
        </mxCell>
        <mxCell id="XamU2vE_pedXC1t-x_eG-75" value="" style="html=1;verticalAlign=bottom;labelBackgroundColor=none;endArrow=block;endFill=1;dashed=1;rounded=0;movable=1;resizable=1;rotatable=1;deletable=1;editable=1;locked=0;connectable=1;" parent="1" source="XamU2vE_pedXC1t-x_eG-32" edge="1">
          <mxGeometry width="160" relative="1" as="geometry">
            <mxPoint x="610" y="410" as="sourcePoint" />
            <mxPoint x="316" y="410" as="targetPoint" />
          </mxGeometry>
        </mxCell>
        <mxCell id="XamU2vE_pedXC1t-x_eG-76" value="Scanner object" style="text;html=1;align=center;verticalAlign=middle;resizable=1;points=[];autosize=1;strokeColor=none;fillColor=none;fontSize=11;movable=1;rotatable=1;deletable=1;editable=1;locked=0;connectable=1;" parent="1" vertex="1">
          <mxGeometry x="325" y="388" width="100" height="30" as="geometry" />
        </mxCell>
        <mxCell id="XamU2vE_pedXC1t-x_eG-77" value="Pass fileName to FileReader" style="html=1;verticalAlign=bottom;endArrow=block;curved=0;rounded=0;" parent="1" source="XamU2vE_pedXC1t-x_eG-22" edge="1">
          <mxGeometry x="-0.4915" width="80" relative="1" as="geometry">
            <mxPoint x="320" y="440" as="sourcePoint" />
            <mxPoint x="610" y="440" as="targetPoint" />
            <mxPoint as="offset" />
          </mxGeometry>
        </mxCell>
        <mxCell id="XamU2vE_pedXC1t-x_eG-78" value="Read file" style="html=1;verticalAlign=bottom;endArrow=block;curved=0;rounded=0;" parent="1" edge="1">
          <mxGeometry x="-0.5714" width="80" relative="1" as="geometry">
            <mxPoint x="620" y="460" as="sourcePoint" />
            <mxPoint x="759.9999999999998" y="459.9999999999999" as="targetPoint" />
            <mxPoint as="offset" />
          </mxGeometry>
        </mxCell>
        <mxCell id="XamU2vE_pedXC1t-x_eG-79" value="" style="html=1;verticalAlign=bottom;labelBackgroundColor=none;endArrow=block;endFill=1;dashed=1;rounded=0;movable=1;resizable=1;rotatable=1;deletable=1;editable=1;locked=0;connectable=1;" parent="1" source="XamU2vE_pedXC1t-x_eG-34" edge="1">
          <mxGeometry width="160" relative="1" as="geometry">
            <mxPoint x="610" y="490" as="sourcePoint" />
            <mxPoint x="316" y="490" as="targetPoint" />
          </mxGeometry>
        </mxCell>
        <mxCell id="XamU2vE_pedXC1t-x_eG-80" value="File contents" style="text;html=1;align=center;verticalAlign=middle;resizable=1;points=[];autosize=1;strokeColor=none;fillColor=none;fontSize=11;movable=1;rotatable=1;deletable=1;editable=1;locked=0;connectable=1;" parent="1" vertex="1">
          <mxGeometry x="328" y="467" width="90" height="30" as="geometry" />
        </mxCell>
        <mxCell id="XamU2vE_pedXC1t-x_eG-81" value="Call main_menu" style="html=1;verticalAlign=bottom;endArrow=block;curved=0;rounded=0;" parent="1" edge="1">
          <mxGeometry x="-0.3814" width="80" relative="1" as="geometry">
            <mxPoint x="315" y="520" as="sourcePoint" />
            <mxPoint x="460" y="519.9999999999999" as="targetPoint" />
            <mxPoint as="offset" />
          </mxGeometry>
        </mxCell>
        <mxCell id="XamU2vE_pedXC1t-x_eG-82" value="Display&amp;nbsp;&lt;div&gt;main_menu&lt;/div&gt;" style="html=1;verticalAlign=bottom;endArrow=block;curved=0;rounded=0;" parent="1" source="XamU2vE_pedXC1t-x_eG-40" edge="1">
          <mxGeometry x="0.7983" width="80" relative="1" as="geometry">
            <mxPoint x="223.75" y="550" as="sourcePoint" />
            <mxPoint x="26.25" y="550" as="targetPoint" />
            <mxPoint as="offset" />
          </mxGeometry>
        </mxCell>
        <mxCell id="XamU2vE_pedXC1t-x_eG-83" value="Choose&amp;nbsp;&lt;div&gt;menu options&lt;/div&gt;" style="html=1;verticalAlign=bottom;endArrow=block;curved=0;rounded=0;" parent="1" target="XamU2vE_pedXC1t-x_eG-20" edge="1">
          <mxGeometry x="-0.1521" width="80" relative="1" as="geometry">
            <mxPoint x="26" y="580" as="sourcePoint" />
            <mxPoint x="456" y="580" as="targetPoint" />
            <mxPoint as="offset" />
          </mxGeometry>
        </mxCell>
        <mxCell id="XamU2vE_pedXC1t-x_eG-85" value="Pass control to&amp;nbsp;&lt;div&gt;menu option method&lt;/div&gt;" style="html=1;verticalAlign=bottom;endArrow=block;curved=0;rounded=0;" parent="1" edge="1">
          <mxGeometry x="-0.5455" width="80" relative="1" as="geometry">
            <mxPoint x="135" y="670" as="sourcePoint" />
            <mxPoint x="460" y="670" as="targetPoint" />
            <mxPoint as="offset" />
          </mxGeometry>
        </mxCell>
        <mxCell id="XamU2vE_pedXC1t-x_eG-86" value="Execute selected option" style="html=1;verticalAlign=bottom;endArrow=block;curved=0;rounded=0;" parent="1" source="XamU2vE_pedXC1t-x_eG-20" edge="1">
          <mxGeometry x="0.4545" width="80" relative="1" as="geometry">
            <mxPoint x="455.75" y="630" as="sourcePoint" />
            <mxPoint x="130" y="630" as="targetPoint" />
            <mxPoint as="offset" />
          </mxGeometry>
        </mxCell>
        <mxCell id="XamU2vE_pedXC1t-x_eG-112" value="alt" style="shape=umlFrame;whiteSpace=wrap;html=1;pointerEvents=0;width=50;height=20;" parent="1" vertex="1">
          <mxGeometry x="70" y="720" width="440" height="250" as="geometry" />
        </mxCell>
        <mxCell id="XamU2vE_pedXC1t-x_eG-114" value="" style="endArrow=none;dashed=1;html=1;rounded=0;exitX=0.002;exitY=0.262;exitDx=0;exitDy=0;exitPerimeter=0;entryX=1.005;entryY=0.267;entryDx=0;entryDy=0;entryPerimeter=0;" parent="1" edge="1">
          <mxGeometry width="50" height="50" relative="1" as="geometry">
            <mxPoint x="70" y="790" as="sourcePoint" />
            <mxPoint x="511" y="791" as="targetPoint" />
          </mxGeometry>
        </mxCell>
        <mxCell id="XamU2vE_pedXC1t-x_eG-115" value="" style="endArrow=none;dashed=1;html=1;rounded=0;exitX=0.002;exitY=0.262;exitDx=0;exitDy=0;exitPerimeter=0;entryX=1.005;entryY=0.267;entryDx=0;entryDy=0;entryPerimeter=0;" parent="1" edge="1">
          <mxGeometry width="50" height="50" relative="1" as="geometry">
            <mxPoint x="69" y="849.5" as="sourcePoint" />
            <mxPoint x="510" y="850.5" as="targetPoint" />
          </mxGeometry>
        </mxCell>
        <mxCell id="XamU2vE_pedXC1t-x_eG-116" value="" style="endArrow=none;dashed=1;html=1;rounded=0;exitX=0.002;exitY=0.262;exitDx=0;exitDy=0;exitPerimeter=0;entryX=1.005;entryY=0.267;entryDx=0;entryDy=0;entryPerimeter=0;" parent="1" edge="1">
          <mxGeometry width="50" height="50" relative="1" as="geometry">
            <mxPoint x="70" y="910" as="sourcePoint" />
            <mxPoint x="511" y="911" as="targetPoint" />
          </mxGeometry>
        </mxCell>
        <mxCell id="XamU2vE_pedXC1t-x_eG-118" value="&lt;b&gt;&lt;font style=&quot;font-size: 11px;&quot;&gt;[Sort people]&lt;/font&gt;&lt;/b&gt;" style="text;html=1;align=center;verticalAlign=middle;resizable=0;points=[];autosize=1;strokeColor=none;fillColor=none;" parent="1" vertex="1">
          <mxGeometry x="139" y="714" width="90" height="30" as="geometry" />
        </mxCell>
        <mxCell id="XamU2vE_pedXC1t-x_eG-119" value="&lt;b&gt;&lt;font style=&quot;font-size: 11px;&quot;&gt;[Search people]&lt;/font&gt;&lt;/b&gt;" style="text;html=1;align=center;verticalAlign=middle;resizable=0;points=[];autosize=1;strokeColor=none;fillColor=none;" parent="1" vertex="1">
          <mxGeometry x="130" y="785" width="110" height="30" as="geometry" />
        </mxCell>
        <mxCell id="XamU2vE_pedXC1t-x_eG-120" value="&lt;b&gt;&lt;font style=&quot;font-size: 11px;&quot;&gt;[Add person]&lt;/font&gt;&lt;/b&gt;" style="text;html=1;align=center;verticalAlign=middle;resizable=0;points=[];autosize=1;strokeColor=none;fillColor=none;" parent="1" vertex="1">
          <mxGeometry x="140" y="843" width="90" height="30" as="geometry" />
        </mxCell>
        <mxCell id="XamU2vE_pedXC1t-x_eG-121" value="&lt;b&gt;&lt;font style=&quot;font-size: 11px;&quot;&gt;[Get random person]&lt;/font&gt;&lt;/b&gt;" style="text;html=1;align=center;verticalAlign=middle;resizable=0;points=[];autosize=1;strokeColor=none;fillColor=none;" parent="1" vertex="1">
          <mxGeometry x="130" y="904" width="130" height="30" as="geometry" />
        </mxCell>
        <mxCell id="XamU2vE_pedXC1t-x_eG-124" value="call sortPeople()" style="html=1;align=left;spacingLeft=2;endArrow=block;rounded=0;edgeStyle=orthogonalEdgeStyle;curved=0;rounded=0;" parent="1" edge="1">
          <mxGeometry relative="1" as="geometry">
            <mxPoint x="135" y="740" as="sourcePoint" />
            <Array as="points">
              <mxPoint x="170" y="740" />
              <mxPoint x="170" y="756" />
            </Array>
            <mxPoint x="136" y="756" as="targetPoint" />
          </mxGeometry>
        </mxCell>
        <mxCell id="XamU2vE_pedXC1t-x_eG-125" value="" style="html=1;verticalAlign=bottom;labelBackgroundColor=none;endArrow=block;endFill=1;dashed=1;rounded=0;movable=1;resizable=1;rotatable=1;deletable=1;editable=1;locked=0;connectable=1;" parent="1" edge="1">
          <mxGeometry width="160" relative="1" as="geometry">
            <mxPoint x="135" y="781" as="sourcePoint" />
            <mxPoint x="464.9999999999998" y="781" as="targetPoint" />
          </mxGeometry>
        </mxCell>
        <mxCell id="XamU2vE_pedXC1t-x_eG-127" value="Return to main_menu" style="text;html=1;align=center;verticalAlign=middle;resizable=1;points=[];autosize=1;strokeColor=none;fillColor=none;fontSize=11;movable=1;rotatable=1;deletable=1;editable=1;locked=0;connectable=1;" parent="1" vertex="1">
          <mxGeometry x="170" y="760" width="130" height="30" as="geometry" />
        </mxCell>
        <mxCell id="XamU2vE_pedXC1t-x_eG-128" value="" style="html=1;verticalAlign=bottom;labelBackgroundColor=none;endArrow=block;endFill=1;dashed=1;rounded=0;movable=1;resizable=1;rotatable=1;deletable=1;editable=1;locked=0;connectable=1;" parent="1" edge="1">
          <mxGeometry width="160" relative="1" as="geometry">
            <mxPoint x="135" y="841" as="sourcePoint" />
            <mxPoint x="464.9999999999998" y="841" as="targetPoint" />
          </mxGeometry>
        </mxCell>
        <mxCell id="XamU2vE_pedXC1t-x_eG-129" value="Return to main_menu" style="text;html=1;align=center;verticalAlign=middle;resizable=1;points=[];autosize=1;strokeColor=none;fillColor=none;fontSize=11;movable=1;rotatable=1;deletable=1;editable=1;locked=0;connectable=1;" parent="1" vertex="1">
          <mxGeometry x="170" y="820" width="130" height="30" as="geometry" />
        </mxCell>
        <mxCell id="XamU2vE_pedXC1t-x_eG-130" value="" style="html=1;verticalAlign=bottom;labelBackgroundColor=none;endArrow=block;endFill=1;dashed=1;rounded=0;movable=1;resizable=1;rotatable=1;deletable=1;editable=1;locked=0;connectable=1;" parent="1" edge="1">
          <mxGeometry width="160" relative="1" as="geometry">
            <mxPoint x="135" y="901" as="sourcePoint" />
            <mxPoint x="464.9999999999998" y="901" as="targetPoint" />
          </mxGeometry>
        </mxCell>
        <mxCell id="XamU2vE_pedXC1t-x_eG-131" value="Return to main_menu" style="text;html=1;align=center;verticalAlign=middle;resizable=1;points=[];autosize=1;strokeColor=none;fillColor=none;fontSize=11;movable=1;rotatable=1;deletable=1;editable=1;locked=0;connectable=1;" parent="1" vertex="1">
          <mxGeometry x="165" y="880" width="130" height="30" as="geometry" />
        </mxCell>
        <mxCell id="XamU2vE_pedXC1t-x_eG-132" value="" style="html=1;verticalAlign=bottom;labelBackgroundColor=none;endArrow=block;endFill=1;dashed=1;rounded=0;movable=1;resizable=1;rotatable=1;deletable=1;editable=1;locked=0;connectable=1;" parent="1" edge="1">
          <mxGeometry width="160" relative="1" as="geometry">
            <mxPoint x="135" y="961" as="sourcePoint" />
            <mxPoint x="464.9999999999998" y="961" as="targetPoint" />
          </mxGeometry>
        </mxCell>
        <mxCell id="XamU2vE_pedXC1t-x_eG-133" value="Return to main_menu" style="text;html=1;align=center;verticalAlign=middle;resizable=1;points=[];autosize=1;strokeColor=none;fillColor=none;fontSize=11;movable=1;rotatable=1;deletable=1;editable=1;locked=0;connectable=1;" parent="1" vertex="1">
          <mxGeometry x="170" y="940" width="130" height="30" as="geometry" />
        </mxCell>
        <mxCell id="XamU2vE_pedXC1t-x_eG-135" value="" style="html=1;verticalAlign=bottom;labelBackgroundColor=none;endArrow=block;endFill=1;dashed=1;rounded=0;movable=1;resizable=1;rotatable=1;deletable=1;editable=1;locked=0;connectable=1;entryX=-0.015;entryY=0.734;entryDx=0;entryDy=0;entryPerimeter=0;" parent="1" edge="1">
          <mxGeometry width="160" relative="1" as="geometry">
            <mxPoint x="459.9999999999998" y="1010.02" as="sourcePoint" />
            <mxPoint x="25.649999999999977" y="1010.02" as="targetPoint" />
          </mxGeometry>
        </mxCell>
        <mxCell id="XamU2vE_pedXC1t-x_eG-136" value="Display&lt;div&gt;main_menu&lt;/div&gt;" style="text;html=1;align=center;verticalAlign=middle;resizable=1;points=[];autosize=1;strokeColor=none;fillColor=none;fontSize=11;movable=1;rotatable=1;deletable=1;editable=1;locked=0;connectable=1;" parent="1" vertex="1">
          <mxGeometry x="38" y="976" width="80" height="40" as="geometry" />
        </mxCell>
        <mxCell id="XamU2vE_pedXC1t-x_eG-138" value="call searchPeople()" style="html=1;align=left;spacingLeft=2;endArrow=block;rounded=0;edgeStyle=orthogonalEdgeStyle;curved=0;rounded=0;" parent="1" edge="1">
          <mxGeometry relative="1" as="geometry">
            <mxPoint x="134.97" y="810" as="sourcePoint" />
            <Array as="points">
              <mxPoint x="169.97" y="810" />
              <mxPoint x="169.97" y="826" />
            </Array>
            <mxPoint x="135.97" y="826" as="targetPoint" />
          </mxGeometry>
        </mxCell>
        <mxCell id="XamU2vE_pedXC1t-x_eG-139" value="call addPerson()" style="html=1;align=left;spacingLeft=2;endArrow=block;rounded=0;edgeStyle=orthogonalEdgeStyle;curved=0;rounded=0;" parent="1" edge="1">
          <mxGeometry relative="1" as="geometry">
            <mxPoint x="134.97" y="868" as="sourcePoint" />
            <Array as="points">
              <mxPoint x="169.97" y="868" />
              <mxPoint x="169.97" y="884" />
            </Array>
            <mxPoint x="135.97" y="884" as="targetPoint" />
          </mxGeometry>
        </mxCell>
        <mxCell id="XamU2vE_pedXC1t-x_eG-140" value="call getRandomPerson()" style="html=1;align=left;spacingLeft=2;endArrow=block;rounded=0;edgeStyle=orthogonalEdgeStyle;curved=0;rounded=0;" parent="1" edge="1">
          <mxGeometry relative="1" as="geometry">
            <mxPoint x="134.97" y="929" as="sourcePoint" />
            <Array as="points">
              <mxPoint x="169.97" y="929" />
              <mxPoint x="169.97" y="945" />
            </Array>
            <mxPoint x="135.97" y="945" as="targetPoint" />
          </mxGeometry>
        </mxCell>
        <mxCell id="XamU2vE_pedXC1t-x_eG-142" value="Process&amp;nbsp;&lt;div&gt;selected option&lt;/div&gt;" style="html=1;align=left;spacingLeft=2;endArrow=block;rounded=0;edgeStyle=orthogonalEdgeStyle;curved=0;rounded=0;dashed=1;" parent="1" edge="1">
          <mxGeometry relative="1" as="geometry">
            <mxPoint x="134.97" y="690" as="sourcePoint" />
            <Array as="points">
              <mxPoint x="169.97" y="690" />
              <mxPoint x="169.97" y="706" />
            </Array>
            <mxPoint x="135.97" y="706" as="targetPoint" />
          </mxGeometry>
        </mxCell>
      </root>
    </mxGraphModel>
  </diagram>
</mxfile>
